#!OML:ASF F:\twosubjects\two\Thursday\Session 1\Rory.ASF
:FULLY-SPECIFIED
:DEGREES
416
root 15.9196 13.8486 9.8582 -105.49 -82.9682 102.63
lowerback 34.1106 3.5444 3.49031
upperback 12.9184 3.87339 -1.97844
thorax -2.78062 1.49484 -5.10899
lowerneck -10.8354 -9.41161 -8.3248
upperneck -10.8443 -11.4372 20.8807
head 0.463532 -5.88517 7.19365
rclavicle -1.74931e-014 2.3059e-014
rhumerus 88.1241 -6.62699 -89.2157
rradius 29.6684
rwrist -8.63032
rhand -18.9908 -5.86187
rfingers 7.12502
rthumb 7.31399 -35.7155
lclavicle -1.74931e-014 2.3059e-014
lhumerus -25.3398 -35.6017 93.9253
lradius 94.9767
lwrist -32.8329
lhand -7.1436 31.8671
lfingers 7.12502
lthumb 18.7327 60.9851
rfemur -57.2115 3.41726 -14.5915
rtibia 51.4034
rfoot 5.1645 -6.03268
rtoes -1.31474
lfemur -51.2763 -1.99342 2.41662
ltibia 37.1489
lfoot 14.0111 -4.79029
ltoes 1.93683
417
root 15.8735 13.8571 9.86581 -107.191 -82.4139 105.001
lowerback 34.0999 3.45806 2.78103
upperback 12.6872 3.55537 -2.11069
thorax -3.09859 1.31288 -4.78082
lowerneck -10.5188 -9.16879 -9.22211
upperneck -10.9641 -11.0167 21.0378
head 0.387553 -5.66775 7.44607
rclavicle -2.70347e-014 0
rhumerus 87.967 -5.60979 -88.5345
rradius 29.9097
rwrist -9.62298
rhand -19.8387 -5.42564
rfingers 7.12502
rthumb 6.49557 -35.306
lclavicle -2.70347e-014 0
lhumerus -26.2594 -34.7363 94.2961
lradius 95.4399
lwrist -33.1103
lhand -7.99716 31.7064
lfingers 7.12502
lthumb 17.9116 60.9016
rfemur -57.9766 3.26643 -15.1407
rtibia 51.3489
rfoot 5.30366 -5.39265
rtoes -0.588206
lfemur -51.7772 -1.97419 2.26698
ltibia 37.5028
lfoot 13.5498 -4.63495
ltoes 2.61761
418
root 15.8329 13.8622 9.88109 -107.451 -82.0164 105.788
lowerback 34.0671 3.16425 2.36737
upperback 12.5926 3.0462 -2.3424
thorax -3.24954 1.05428 -4.64611
lowerneck -10.1866 -8.84233 -9.66094
upperneck -11.2 -10.5243 21.1375
head 0.228301 -5.44033 7.61709
rclavicle -1.27222e-014 -1.66979e-014
rhumerus 88.0013 -4.57557 -88.2014
rradius 30.2035
rwrist -10.6078
rhand -20.7003 -5.31655
rfingers 7.12502
rthumb 5.66375 -35.2209
lclavicle -1.27222e-014 -1.66979e-014
lhumerus -26.946 -33.9197 94.4798
lradius 95.8928
lwrist -33.4623
lhand -8.79759 32.7576
lfingers 7.12502
lthumb 17.1413 62.0215
rfemur -58.51 2.98751 -15.5462
rtibia 51.3398
rfoot 5.4681 -4.73629
rtoes 0.51055
lfemur -52.3408 -2.1083 2.1293
ltibia 37.9386
lfoot 13.0542 -4.64263
ltoes 1.23785
419
root 15.793 13.8785 9.8779 -109.935 -82.3881 108.754
lowerback 34.0867 2.87918 2.43535
upperback 12.4556 2.72434 -2.27959
thorax -3.43201 0.892589 -4.51684
lowerneck -9.75371 -8.55571 -9.88165
upperneck -11.5023 -10.1082 21.0062
head 0.0108203 -5.26162 7.67728
rclavicle -2.06736e-014 1.03368e-014
rhumerus 88.0245 -3.63166 -87.743
rradius 30.4315
rwrist -11.1414
rhand -21.3818 -5.29272
rfingers 7.12502
rthumb 5.00568 -35.2136
lclavicle -2.06736e-014 1.03368e-014
lhumerus -27.6696 -33.017 94.7543
lradius 96.4036
lwrist -34.3351
lhand -8.76529 31.9406
lfingers 7.12502
lthumb 17.1724 61.2018
rfemur -59.0196 2.99972 -14.9111
rtibia 51.4046
rfoot 5.38304 -4.44716
rtoes 1.43945
lfemur -52.7995 -2.01187 2.86975
ltibia 38.409
lfoot 12.524 -4.76852
ltoes -1.00761
420
root 15.7416 13.8908 9.87023 -114.653 -82.6988 114.008
lowerback 34.1381 2.83562 2.54929
upperback 12.2548 2.72668 -2.19933
thorax -3.66474 0.890694 -4.4989
lowerneck -9.62978 -8.49807 -9.94484
upperneck -11.5272 -10.0353 20.6817
head -0.0506125 -5.22409 7.59761
rclavicle -4.85035e-014 4.29375e-014
rhumerus 87.9683 -3.24956 -86.775
rradius 30.5907
rwrist -11.609
rhand -22.3731 -5.04048
rfingers 7.12502
rthumb 4.04848 -34.9818
lclavicle -4.85035e-014 4.29375e-014
lhumerus -28.5241 -32.6478 95.1284
lradius 97.0218
lwrist -35.3273
lhand -8.3976 30.8879
lfingers 7.12502
lthumb 17.5262 60.1179
rfemur -59.7366 3.12466 -14.1872
rtibia 51.5418
rfoot 5.21341 -4.14188
rtoes 1.52951
lfemur -53.1552 -1.53999 3.62479
ltibia 38.8949
lfoot 12.0041 -4.81626
ltoes -2.6661
421
root 15.6907 13.8962 9.87633 -117.131 -82.6473 117.043
lowerback 34.1185 2.6909 2.48838
upperback 12.0935 2.53175 -2.31042
thorax -3.84894 0.795798 -4.52344
lowerneck -9.64906 -8.40369 -9.93073
upperneck -11.4833 -9.92252 20.3592
head -0.078829 -5.16109 7.50115
rclavicle 3.18055e-014 -5.80451e-014
rhumerus 88.0527 -2.64201 -86.638
rradius 30.7853
rwrist -11.468
rhand -22.4089 -5.07944
rfingers 7.12502
rthumb 4.01388 -35.0214
lclavicle 3.18055e-014 -5.80451e-014
lhumerus -29.3816 -32.3202 95.4061
lradius 97.6945
lwrist -36.0739
lhand -8.64575 31.3231
lfingers 7.12502
lthumb 17.2874 60.5742
rfemur -60.4236 3.11988 -14.145
rtibia 51.7093
rfoot 5.04599 -3.77791
rtoes 1.33338
lfemur -53.6571 -1.24621 3.90139
ltibia 39.3905
lfoot 11.4869 -4.81143
ltoes -4.31383
422
root 15.6403 13.9038 9.88614 -117.775 -82.6898 118.327
lowerback 33.9566 2.3745 2.56181
upperback 11.8887 2.16903 -2.54322
thorax -4.03597 0.631975 -4.69089
lowerneck -9.62788 -8.16874 -9.77163
upperneck -11.2503 -9.65076 20.0571
head -0.087384 -5.0162 7.39496
rclavicle -3.73715e-014 5.56597e-014
rhumerus 88.1644 -1.85612 -87.498
rradius 30.8898
rwrist -10.7152
rhand -21.5184 -5.13714
rfingers 7.12502
rthumb 4.87377 -35.0611
lclavicle -3.73715e-014 5.56597e-014
lhumerus -30.2264 -31.972 95.4271
lradius 98.3592
lwrist -36.8072
lhand -8.47316 31.4435
lfingers 7.12502
lthumb 17.4535 60.6799
rfemur -60.9926 2.80304 -14.0509
rtibia 51.8495
rfoot 4.8132 -3.47832
rtoes 1.91201
lfemur -54.3501 -1.26401 4.25672
ltibia 39.9019
lfoot 10.93 -4.72943
ltoes -5.35874
423
root 15.5847 13.9162 9.88638 -120.5 -82.5044 121.542
lowerback 33.9996 2.56387 2.85375
upperback 11.9351 2.44475 -3.02802
thorax -3.95054 0.78819 -5.44767
lowerneck -10.5641 -8.36452 -8.49694
upperneck -10.9609 -10.045 19.531
head 0.0902491 -5.20365 6.9425
rclavicle -4.17448e-014 3.89618e-014
rhumerus 88.5117 -2.66756 -88.0416
rradius 31.1878
rwrist -10.4806
rhand -21.2236 -4.87246
rfingers 7.12502
rthumb 5.15848 -34.7897
lclavicle -4.17448e-014 3.89618e-014
lhumerus -30.2763 -33.2682 94.8224
lradius 98.8413
lwrist -37.1342
lhand -7.70564 31.1543
lfingers 7.12502
lthumb 18.1921 60.3236
rfemur -61.573 2.7548 -13.8192
rtibia 51.9762
rfoot 4.50915 -3.40042
rtoes 1.97416
lfemur -54.6524 -1.09035 4.56238
ltibia 40.411
lfoot 10.3372 -4.54398
ltoes -5.31527
424
root 15.5322 13.9318 9.87724 -125.155 -82.1308 126.447
lowerback 34.1153 2.61968 2.15066
upperback 11.8547 2.29106 -2.8791
thorax -4.12804 0.678313 -4.86904
lowerneck -10.4416 -8.17655 -9.17933
upperneck -11.1065 -9.72179 19.4091
head 0.0111369 -5.03018 7.05349
rclavicle 1.35174e-014 1.66979e-014
rhumerus 88.4658 -1.6999 -86.8737
rradius 31.6801
rwrist -11.9786
rhand -21.5307 -5.02351
rfingers 7.12502
rthumb 4.86189 -34.9477
lclavicle 1.35174e-014 1.66979e-014
lhumerus -30.8835 -32.2698 95.2255
lradius 99.2992
lwrist -37.562
lhand -7.83433 31.3958
lfingers 7.12502
lthumb 18.0682 60.5766
rfemur -62.0919 3.27616 -13.6528
rtibia 52.0886
rfoot 4.00438 -3.6262
rtoes -0.0667323
lfemur -54.5438 -0.650284 4.81412
ltibia 40.8991
lfoot 9.7627 -4.44233
ltoes -5.16292
